# xmcd CD database file
#
# Track frame offsets:
#	150
#	12878
#	25965
#	36981
#	49535
#	62147
#	73762
#	85220
#	97734
#	112624
#	124638
#	137143
#	148096
#	159809
#	171103
#	185123
#	196559
#	210052
#	224265
#	238972
#
# Disc length: 3381 seconds
#
# Revision: 0
# Processed by: cddbd v1.5.1PL0 Copyright (c) Steve Scherf et al.
# Submitted via: CDex 1.51
#
DISCID=0b0d3314
DTITLE=Memphis Minnie - Queen of the Delta Blues, Volume 2, Disc E
DYEAR=2004
DGENRE=Blues
TTITLE0=Tears on My Pillow 
TTITLE1=Sweet Man, Take 2 
TTITLE2=I Hope) Luck Will Change Some Day, Take 2 
TTITLE3=(I Hope) Luck Will Change Some Day, Take 2 
TTITLE4=(Oh) Believe Me 
TTITLE5=Tonight I Smile with You
TTITLE6=Jump Little Rabbit 
TTITLE7=Down Home Girl 
TTITLE8=Night Watchman Blues, Take 1 
TTITLE9=Night Watchman Blues, Take 2 
TTITLE10=Why Did I Make You Cry 
TTITLE11=Kidman Blues, Take 1 
TTITLE12=Kidman Blues, Take 2 
TTITLE13=Kissing in the Dark 
TTITLE14=World of Trouble 
TTITLE15=In Love Again 
TTITLE16=What a Night 
TTITLE17=Little Son Joe - Ethel Bea 
TTITLE18=Little Son Joe - A Little Too Late 
TTITLE19=Little Son Joe - I'd Write a Letter 
EXTD=YEAR: 2004
EXTT0=
EXTT1=
EXTT2=
EXTT3=
EXTT4=
EXTT5=
EXTT6=
EXTT7=
EXTT8=
EXTT9=
EXTT10=
EXTT11=
EXTT12=
EXTT13=
EXTT14=
EXTT15=
EXTT16=
EXTT17=
EXTT18=
EXTT19=
PLAYORDER=
